{
	"asset":{
		"generator":"Khronos glTF Blender I/O v4.2.70",
		"version":"2.0"
	},
	"scene":0,
	"scenes":[
		{
			"name":"Scene",
			"nodes":[
				0,
				1,
				2,
				3,
				4
			]
		}
	],
	"nodes":[
		{
			"mesh":0,
			"name":"Body",
			"rotation":[
				0.70710688829422,
				0,
				0,
				0.7071066498756409
			],
			"translation":[
				0,
				4.465173244476318,
				0
			]
		},
		{
			"mesh":1,
			"name":"FL",
			"rotation":[
				0.70710688829422,
				0,
				0,
				0.7071066498756409
			],
			"translation":[
				7.754171371459961,
				2.8018910884857178,
				11.098396301269531
			]
		},
		{
			"mesh":2,
			"name":"FR",
			"rotation":[
				0.70710688829422,
				0,
				0,
				0.7071066498756409
			],
			"translation":[
				-7.914582252502441,
				2.8018901348114014,
				11.098401069641113
			]
		},
		{
			"mesh":3,
			"name":"RL",
			"rotation":[
				0.70710688829422,
				0,
				0,
				0.7071066498756409
			],
			"translation":[
				7.878415584564209,
				2.9943530559539795,
				-11.532519340515137
			]
		},
		{
			"mesh":4,
			"name":"RR",
			"rotation":[
				0.70710688829422,
				0,
				0,
				0.7071066498756409
			],
			"translation":[
				-8.038771629333496,
				2.9943511486053467,
				-11.532519340515137
			]
		}
	],
	"materials":[
		{
			"doubleSided":true,
			"name":"Carbon.003",
			"pbrMetallicRoughness":{
				"baseColorFactor":[
					0.010022825561463833,
					0.010022825561463833,
					0.010022825561463833,
					1
				],
				"metallicFactor":0,
				"roughnessFactor":0.5
			}
		},
		{
			"doubleSided":true,
			"name":"Window Glass"
		},
		{
			"doubleSided":true,
			"name":"Carbon",
			"pbrMetallicRoughness":{
				"baseColorFactor":[
					0.010022825561463833,
					0.010022825561463833,
					0.010022825561463833,
					1
				],
				"metallicFactor":0,
				"roughnessFactor":0.5
			}
		},
		{
			"doubleSided":true,
			"name":"Carbon.002",
			"pbrMetallicRoughness":{
				"baseColorFactor":[
					0.03310476616024971,
					0.03310476616024971,
					0.03310476616024971,
					1
				],
				"metallicFactor":0,
				"roughnessFactor":0.5
			}
		},
		{
			"doubleSided":true,
			"name":"Car Texture",
			"pbrMetallicRoughness":{
				"baseColorFactor":[
					0.01786760799586773,
					0.01786760799586773,
					0.01786760799586773,
					1
				],
				"metallicFactor":0.30927833914756775,
				"roughnessFactor":0
			}
		},
		{
			"doubleSided":true,
			"name":"Carbon.001",
			"pbrMetallicRoughness":{
				"baseColorFactor":[
					0,
					0,
					0,
					1
				],
				"metallicFactor":0,
				"roughnessFactor":0.5
			}
		},
		{
			"doubleSided":true,
			"name":"Rear Lights"
		}
	],
	"meshes":[
		{
			"name":"Koenisegg one.341",
			"primitives":[
				{
					"attributes":{
						"POSITION":0,
						"NORMAL":1,
						"TEXCOORD_0":2,
						"TANGENT":3
					},
					"indices":4,
					"material":0
				},
				{
					"attributes":{
						"POSITION":5,
						"NORMAL":6,
						"TEXCOORD_0":7,
						"TANGENT":8
					},
					"indices":9,
					"material":1
				},
				{
					"attributes":{
						"POSITION":10,
						"NORMAL":11,
						"TEXCOORD_0":12,
						"TANGENT":13
					},
					"indices":14,
					"material":2
				},
				{
					"attributes":{
						"POSITION":15,
						"NORMAL":16,
						"TEXCOORD_0":17,
						"TANGENT":18
					},
					"indices":19,
					"material":3
				},
				{
					"attributes":{
						"POSITION":20,
						"NORMAL":21,
						"TEXCOORD_0":22,
						"TANGENT":23
					},
					"indices":24,
					"material":4
				},
				{
					"attributes":{
						"POSITION":25,
						"NORMAL":26,
						"TEXCOORD_0":27,
						"TANGENT":28
					},
					"indices":29,
					"material":5
				},
				{
					"attributes":{
						"POSITION":30,
						"NORMAL":31,
						"TEXCOORD_0":32,
						"TANGENT":33
					},
					"indices":34,
					"material":6
				}
			]
		},
		{
			"name":"Koenisegg one.436",
			"primitives":[
				{
					"attributes":{
						"POSITION":35,
						"NORMAL":36,
						"TEXCOORD_0":37,
						"TANGENT":38
					},
					"indices":39,
					"material":5
				}
			]
		},
		{
			"name":"Koenisegg one.429",
			"primitives":[
				{
					"attributes":{
						"POSITION":40,
						"NORMAL":41,
						"TEXCOORD_0":42,
						"TANGENT":43
					},
					"indices":44,
					"material":5
				}
			]
		},
		{
			"name":"Koenisegg one.500",
			"primitives":[
				{
					"attributes":{
						"POSITION":45,
						"NORMAL":46,
						"TEXCOORD_0":47,
						"TANGENT":48
					},
					"indices":49,
					"material":5
				}
			]
		},
		{
			"name":"Koenisegg one.501",
			"primitives":[
				{
					"attributes":{
						"POSITION":50,
						"NORMAL":51,
						"TEXCOORD_0":52,
						"TANGENT":53
					},
					"indices":54,
					"material":5
				}
			]
		}
	],
	"accessors":[
		{
			"bufferView":0,
			"componentType":5126,
			"count":8027,
			"max":[
				9.271573066711426,
				19.490196228027344,
				3.5441935062408447
			],
			"min":[
				-9.431955337524414,
				-18.699337005615234,
				-4.690749645233154
			],
			"type":"VEC3"
		},
		{
			"bufferView":1,
			"componentType":5126,
			"count":8027,
			"type":"VEC3"
		},
		{
			"bufferView":2,
			"componentType":5126,
			"count":8027,
			"type":"VEC2"
		},
		{
			"bufferView":3,
			"componentType":5126,
			"count":8027,
			"type":"VEC4"
		},
		{
			"bufferView":4,
			"componentType":5123,
			"count":29472,
			"type":"SCALAR"
		},
		{
			"bufferView":5,
			"componentType":5126,
			"count":430,
			"max":[
				7.324506759643555,
				17.966371536254883,
				0.4046812057495117
			],
			"min":[
				-7.484889984130859,
				-16.225187301635742,
				-4.2961039543151855
			],
			"type":"VEC3"
		},
		{
			"bufferView":6,
			"componentType":5126,
			"count":430,
			"type":"VEC3"
		},
		{
			"bufferView":7,
			"componentType":5126,
			"count":430,
			"type":"VEC2"
		},
		{
			"bufferView":8,
			"componentType":5126,
			"count":430,
			"type":"VEC4"
		},
		{
			"bufferView":9,
			"componentType":5123,
			"count":1482,
			"type":"SCALAR"
		},
		{
			"bufferView":10,
			"componentType":5126,
			"count":230,
			"max":[
				8.341429710388184,
				18.282703399658203,
				3.329857349395752
			],
			"min":[
				-8.501809120178223,
				-16.942148208618164,
				-1.3078927993774414
			],
			"type":"VEC3"
		},
		{
			"bufferView":11,
			"componentType":5126,
			"count":230,
			"type":"VEC3"
		},
		{
			"bufferView":12,
			"componentType":5126,
			"count":230,
			"type":"VEC2"
		},
		{
			"bufferView":13,
			"componentType":5126,
			"count":230,
			"type":"VEC4"
		},
		{
			"bufferView":14,
			"componentType":5123,
			"count":546,
			"type":"SCALAR"
		},
		{
			"bufferView":15,
			"componentType":5126,
			"count":6770,
			"max":[
				25.99228858947754,
				12.52627182006836,
				3.123823404312134
			],
			"min":[
				-7.6422810554504395,
				-3.4911036491394043,
				-5.045899868011475
			],
			"type":"VEC3"
		},
		{
			"bufferView":16,
			"componentType":5126,
			"count":6770,
			"type":"VEC3"
		},
		{
			"bufferView":17,
			"componentType":5126,
			"count":6770,
			"type":"VEC2"
		},
		{
			"bufferView":18,
			"componentType":5126,
			"count":6770,
			"type":"VEC4"
		},
		{
			"bufferView":19,
			"componentType":5123,
			"count":23184,
			"type":"SCALAR"
		},
		{
			"bufferView":20,
			"componentType":5126,
			"count":7315,
			"max":[
				8.448814392089844,
				18.979480743408203,
				3.541602373123169
			],
			"min":[
				-8.609195709228516,
				-17.488969802856445,
				-5.538262844085693
			],
			"type":"VEC3"
		},
		{
			"bufferView":21,
			"componentType":5126,
			"count":7315,
			"type":"VEC3"
		},
		{
			"bufferView":22,
			"componentType":5126,
			"count":7315,
			"type":"VEC2"
		},
		{
			"bufferView":23,
			"componentType":5126,
			"count":7315,
			"type":"VEC4"
		},
		{
			"bufferView":24,
			"componentType":5123,
			"count":24207,
			"type":"SCALAR"
		},
		{
			"bufferView":25,
			"componentType":5126,
			"count":296,
			"max":[
				3.3616690635681152,
				18.320268630981445,
				0.2819032669067383
			],
			"min":[
				-3.295867919921875,
				-11.677349090576172,
				-3.8198723793029785
			],
			"type":"VEC3"
		},
		{
			"bufferView":26,
			"componentType":5126,
			"count":296,
			"type":"VEC3"
		},
		{
			"bufferView":27,
			"componentType":5126,
			"count":296,
			"type":"VEC2"
		},
		{
			"bufferView":28,
			"componentType":5126,
			"count":296,
			"type":"VEC4"
		},
		{
			"bufferView":29,
			"componentType":5123,
			"count":1344,
			"type":"SCALAR"
		},
		{
			"bufferView":30,
			"componentType":5126,
			"count":167,
			"max":[
				7.132745742797852,
				-14.662364959716797,
				-1.2763514518737793
			],
			"min":[
				-7.27186918258667,
				-16.225187301635742,
				-2.1737194061279297
			],
			"type":"VEC3"
		},
		{
			"bufferView":31,
			"componentType":5126,
			"count":167,
			"type":"VEC3"
		},
		{
			"bufferView":32,
			"componentType":5126,
			"count":167,
			"type":"VEC2"
		},
		{
			"bufferView":33,
			"componentType":5126,
			"count":167,
			"type":"VEC4"
		},
		{
			"bufferView":34,
			"componentType":5123,
			"count":726,
			"type":"SCALAR"
		},
		{
			"bufferView":35,
			"componentType":5126,
			"count":3530,
			"max":[
				0.5109038352966309,
				3.1489992141723633,
				2.870856285095215
			],
			"min":[
				-1.725639820098877,
				-2.3981313705444336,
				-2.6653265953063965
			],
			"type":"VEC3"
		},
		{
			"bufferView":36,
			"componentType":5126,
			"count":3530,
			"type":"VEC3"
		},
		{
			"bufferView":37,
			"componentType":5126,
			"count":3530,
			"type":"VEC2"
		},
		{
			"bufferView":38,
			"componentType":5126,
			"count":3530,
			"type":"VEC4"
		},
		{
			"bufferView":39,
			"componentType":5123,
			"count":11928,
			"type":"SCALAR"
		},
		{
			"bufferView":40,
			"componentType":5126,
			"count":3530,
			"max":[
				1.7256684303283691,
				3.1489944458007812,
				2.8708574771881104
			],
			"min":[
				-0.5108761787414551,
				-2.3981361389160156,
				-2.665325403213501
			],
			"type":"VEC3"
		},
		{
			"bufferView":41,
			"componentType":5126,
			"count":3530,
			"type":"VEC3"
		},
		{
			"bufferView":42,
			"componentType":5126,
			"count":3530,
			"type":"VEC2"
		},
		{
			"bufferView":43,
			"componentType":5126,
			"count":3530,
			"type":"VEC4"
		},
		{
			"bufferView":44,
			"componentType":5123,
			"count":11928,
			"type":"SCALAR"
		},
		{
			"bufferView":45,
			"componentType":5126,
			"count":3530,
			"max":[
				0.5031194686889648,
				3.315380096435547,
				3.0225510597229004
			],
			"min":[
				-1.696235179901123,
				-2.524886131286621,
				-2.8061881065368652
			],
			"type":"VEC3"
		},
		{
			"bufferView":46,
			"componentType":5126,
			"count":3530,
			"type":"VEC3"
		},
		{
			"bufferView":47,
			"componentType":5126,
			"count":3530,
			"type":"VEC2"
		},
		{
			"bufferView":48,
			"componentType":5126,
			"count":3530,
			"type":"VEC4"
		},
		{
			"bufferView":49,
			"componentType":5123,
			"count":11928,
			"type":"SCALAR"
		},
		{
			"bufferView":50,
			"componentType":5126,
			"count":3530,
			"max":[
				1.69620943069458,
				3.315380096435547,
				3.0225510597229004
			],
			"min":[
				-0.5031471252441406,
				-2.524886131286621,
				-2.8061881065368652
			],
			"type":"VEC3"
		},
		{
			"bufferView":51,
			"componentType":5126,
			"count":3530,
			"type":"VEC3"
		},
		{
			"bufferView":52,
			"componentType":5126,
			"count":3530,
			"type":"VEC2"
		},
		{
			"bufferView":53,
			"componentType":5126,
			"count":3530,
			"type":"VEC4"
		},
		{
			"bufferView":54,
			"componentType":5123,
			"count":11928,
			"type":"SCALAR"
		}
	],
	"bufferViews":[
		{
			"buffer":0,
			"byteLength":96324,
			"byteOffset":0,
			"target":34962
		},
		{
			"buffer":0,
			"byteLength":96324,
			"byteOffset":96324,
			"target":34962
		},
		{
			"buffer":0,
			"byteLength":64216,
			"byteOffset":192648,
			"target":34962
		},
		{
			"buffer":0,
			"byteLength":128432,
			"byteOffset":256864,
			"target":34962
		},
		{
			"buffer":0,
			"byteLength":58944,
			"byteOffset":385296,
			"target":34963
		},
		{
			"buffer":0,
			"byteLength":5160,
			"byteOffset":444240,
			"target":34962
		},
		{
			"buffer":0,
			"byteLength":5160,
			"byteOffset":449400,
			"target":34962
		},
		{
			"buffer":0,
			"byteLength":3440,
			"byteOffset":454560,
			"target":34962
		},
		{
			"buffer":0,
			"byteLength":6880,
			"byteOffset":458000,
			"target":34962
		},
		{
			"buffer":0,
			"byteLength":2964,
			"byteOffset":464880,
			"target":34963
		},
		{
			"buffer":0,
			"byteLength":2760,
			"byteOffset":467844,
			"target":34962
		},
		{
			"buffer":0,
			"byteLength":2760,
			"byteOffset":470604,
			"target":34962
		},
		{
			"buffer":0,
			"byteLength":1840,
			"byteOffset":473364,
			"target":34962
		},
		{
			"buffer":0,
			"byteLength":3680,
			"byteOffset":475204,
			"target":34962
		},
		{
			"buffer":0,
			"byteLength":1092,
			"byteOffset":478884,
			"target":34963
		},
		{
			"buffer":0,
			"byteLength":81240,
			"byteOffset":479976,
			"target":34962
		},
		{
			"buffer":0,
			"byteLength":81240,
			"byteOffset":561216,
			"target":34962
		},
		{
			"buffer":0,
			"byteLength":54160,
			"byteOffset":642456,
			"target":34962
		},
		{
			"buffer":0,
			"byteLength":108320,
			"byteOffset":696616,
			"target":34962
		},
		{
			"buffer":0,
			"byteLength":46368,
			"byteOffset":804936,
			"target":34963
		},
		{
			"buffer":0,
			"byteLength":87780,
			"byteOffset":851304,
			"target":34962
		},
		{
			"buffer":0,
			"byteLength":87780,
			"byteOffset":939084,
			"target":34962
		},
		{
			"buffer":0,
			"byteLength":58520,
			"byteOffset":1026864,
			"target":34962
		},
		{
			"buffer":0,
			"byteLength":117040,
			"byteOffset":1085384,
			"target":34962
		},
		{
			"buffer":0,
			"byteLength":48414,
			"byteOffset":1202424,
			"target":34963
		},
		{
			"buffer":0,
			"byteLength":3552,
			"byteOffset":1250840,
			"target":34962
		},
		{
			"buffer":0,
			"byteLength":3552,
			"byteOffset":1254392,
			"target":34962
		},
		{
			"buffer":0,
			"byteLength":2368,
			"byteOffset":1257944,
			"target":34962
		},
		{
			"buffer":0,
			"byteLength":4736,
			"byteOffset":1260312,
			"target":34962
		},
		{
			"buffer":0,
			"byteLength":2688,
			"byteOffset":1265048,
			"target":34963
		},
		{
			"buffer":0,
			"byteLength":2004,
			"byteOffset":1267736,
			"target":34962
		},
		{
			"buffer":0,
			"byteLength":2004,
			"byteOffset":1269740,
			"target":34962
		},
		{
			"buffer":0,
			"byteLength":1336,
			"byteOffset":1271744,
			"target":34962
		},
		{
			"buffer":0,
			"byteLength":2672,
			"byteOffset":1273080,
			"target":34962
		},
		{
			"buffer":0,
			"byteLength":1452,
			"byteOffset":1275752,
			"target":34963
		},
		{
			"buffer":0,
			"byteLength":42360,
			"byteOffset":1277204,
			"target":34962
		},
		{
			"buffer":0,
			"byteLength":42360,
			"byteOffset":1319564,
			"target":34962
		},
		{
			"buffer":0,
			"byteLength":28240,
			"byteOffset":1361924,
			"target":34962
		},
		{
			"buffer":0,
			"byteLength":56480,
			"byteOffset":1390164,
			"target":34962
		},
		{
			"buffer":0,
			"byteLength":23856,
			"byteOffset":1446644,
			"target":34963
		},
		{
			"buffer":0,
			"byteLength":42360,
			"byteOffset":1470500,
			"target":34962
		},
		{
			"buffer":0,
			"byteLength":42360,
			"byteOffset":1512860,
			"target":34962
		},
		{
			"buffer":0,
			"byteLength":28240,
			"byteOffset":1555220,
			"target":34962
		},
		{
			"buffer":0,
			"byteLength":56480,
			"byteOffset":1583460,
			"target":34962
		},
		{
			"buffer":0,
			"byteLength":23856,
			"byteOffset":1639940,
			"target":34963
		},
		{
			"buffer":0,
			"byteLength":42360,
			"byteOffset":1663796,
			"target":34962
		},
		{
			"buffer":0,
			"byteLength":42360,
			"byteOffset":1706156,
			"target":34962
		},
		{
			"buffer":0,
			"byteLength":28240,
			"byteOffset":1748516,
			"target":34962
		},
		{
			"buffer":0,
			"byteLength":56480,
			"byteOffset":1776756,
			"target":34962
		},
		{
			"buffer":0,
			"byteLength":23856,
			"byteOffset":1833236,
			"target":34963
		},
		{
			"buffer":0,
			"byteLength":42360,
			"byteOffset":1857092,
			"target":34962
		},
		{
			"buffer":0,
			"byteLength":42360,
			"byteOffset":1899452,
			"target":34962
		},
		{
			"buffer":0,
			"byteLength":28240,
			"byteOffset":1941812,
			"target":34962
		},
		{
			"buffer":0,
			"byteLength":56480,
			"byteOffset":1970052,
			"target":34962
		},
		{
			"buffer":0,
			"byteLength":23856,
			"byteOffset":2026532,
			"target":34963
		}
	],
	"buffers":[
		{
			"byteLength":2050388,
			"uri":"drivee.bin"
		}
	]
}
