{
	"asset":{
		"generator":"Khronos glTF Blender I/O v4.2.70",
		"version":"2.0"
	},
	"scene":0,
	"scenes":[
		{
			"name":"Scene",
			"nodes":[
				0,
				6
			]
		}
	],
	"nodes":[
		{
			"mesh":0,
			"name":"Body",
			"rotation":[
				0.70710688829422,
				0,
				0,
				0.7071066498756409
			],
			"translation":[
				0,
				4.465173244476318,
				0
			]
		},
		{
			"name":"Bone.003",
			"rotation":[
				-0.7016837000846863,
				2.8109843341894702e-08,
				-0.015117919072508812,
				0.7123282551765442
			],
			"scale":[
				1,
				0.9999999403953552,
				0.9999999403953552
			],
			"translation":[
				-2.3446045815944672e-07,
				21.862184524536133,
				8.568167686462402e-08
			]
		},
		{
			"children":[
				1
			],
			"name":"Bone.001",
			"rotation":[
				0.005482296925038099,
				0.7018263339996338,
				0.7123034596443176,
				0.005791609641164541
			],
			"scale":[
				1,
				1.000000238418579,
				1
			],
			"translation":[
				-0.38174062967300415,
				-5.829508304595947,
				0
			]
		},
		{
			"name":"Bone.004",
			"rotation":[
				-1.5592567592648265e-07,
				-4.599213454525852e-09,
				0.9998244047164917,
				0.01874198019504547
			],
			"translation":[
				-0.3854014575481415,
				-5.927125930786133,
				0
			]
		},
		{
			"name":"Bone.005",
			"rotation":[
				-0.01325258333235979,
				-0.7069826722145081,
				-0.013252610340714455,
				0.7069824934005737
			],
			"scale":[
				0.9999999403953552,
				0.9999998807907104,
				1
			],
			"translation":[
				-0.38306891918182373,
				-5.864931583404541,
				0
			]
		},
		{
			"name":"Bone.006",
			"rotation":[
				-0.01325258705765009,
				-0.7069827318191528,
				-0.01325260940939188,
				0.706982433795929
			],
			"scale":[
				0.9999999403953552,
				0.9999998807907104,
				1
			],
			"translation":[
				-0.38306891918182373,
				-5.864931583404541,
				22.366703033447266
			]
		},
		{
			"children":[
				2,
				3,
				4,
				5
			],
			"name":"Armature",
			"rotation":[
				0,
				0,
				-0.6937299370765686,
				0.7202352285385132
			],
			"translation":[
				5.977211952209473,
				2.633178472518921,
				-10.823166847229004
			]
		}
	],
	"animations":[
		{
			"channels":[
				{
					"sampler":0,
					"target":{
						"node":2,
						"path":"translation"
					}
				},
				{
					"sampler":1,
					"target":{
						"node":2,
						"path":"rotation"
					}
				},
				{
					"sampler":2,
					"target":{
						"node":2,
						"path":"scale"
					}
				},
				{
					"sampler":3,
					"target":{
						"node":1,
						"path":"translation"
					}
				},
				{
					"sampler":4,
					"target":{
						"node":1,
						"path":"rotation"
					}
				},
				{
					"sampler":5,
					"target":{
						"node":1,
						"path":"scale"
					}
				},
				{
					"sampler":6,
					"target":{
						"node":3,
						"path":"translation"
					}
				},
				{
					"sampler":7,
					"target":{
						"node":3,
						"path":"rotation"
					}
				},
				{
					"sampler":8,
					"target":{
						"node":3,
						"path":"scale"
					}
				},
				{
					"sampler":9,
					"target":{
						"node":4,
						"path":"translation"
					}
				},
				{
					"sampler":10,
					"target":{
						"node":4,
						"path":"rotation"
					}
				},
				{
					"sampler":11,
					"target":{
						"node":4,
						"path":"scale"
					}
				},
				{
					"sampler":12,
					"target":{
						"node":5,
						"path":"translation"
					}
				},
				{
					"sampler":13,
					"target":{
						"node":5,
						"path":"rotation"
					}
				},
				{
					"sampler":14,
					"target":{
						"node":5,
						"path":"scale"
					}
				}
			],
			"name":"driving",
			"samplers":[
				{
					"input":35,
					"interpolation":"STEP",
					"output":36
				},
				{
					"input":35,
					"interpolation":"STEP",
					"output":37
				},
				{
					"input":35,
					"interpolation":"STEP",
					"output":38
				},
				{
					"input":35,
					"interpolation":"STEP",
					"output":39
				},
				{
					"input":40,
					"interpolation":"LINEAR",
					"output":41
				},
				{
					"input":35,
					"interpolation":"STEP",
					"output":42
				},
				{
					"input":35,
					"interpolation":"LINEAR",
					"output":43
				},
				{
					"input":40,
					"interpolation":"LINEAR",
					"output":44
				},
				{
					"input":35,
					"interpolation":"STEP",
					"output":45
				},
				{
					"input":35,
					"interpolation":"LINEAR",
					"output":46
				},
				{
					"input":40,
					"interpolation":"LINEAR",
					"output":47
				},
				{
					"input":35,
					"interpolation":"STEP",
					"output":48
				},
				{
					"input":35,
					"interpolation":"LINEAR",
					"output":49
				},
				{
					"input":40,
					"interpolation":"LINEAR",
					"output":50
				},
				{
					"input":35,
					"interpolation":"STEP",
					"output":51
				}
			]
		}
	],
	"materials":[
		{
			"doubleSided":true,
			"name":"Carbon.003",
			"pbrMetallicRoughness":{
				"baseColorFactor":[
					0.010022825561463833,
					0.010022825561463833,
					0.010022825561463833,
					1
				],
				"metallicFactor":0,
				"roughnessFactor":0.5
			}
		},
		{
			"doubleSided":true,
			"name":"Window Glass"
		},
		{
			"doubleSided":true,
			"name":"Carbon",
			"pbrMetallicRoughness":{
				"baseColorFactor":[
					0.010022825561463833,
					0.010022825561463833,
					0.010022825561463833,
					1
				],
				"metallicFactor":0,
				"roughnessFactor":0.5
			}
		},
		{
			"doubleSided":true,
			"name":"Carbon.002",
			"pbrMetallicRoughness":{
				"baseColorFactor":[
					0.03310476616024971,
					0.03310476616024971,
					0.03310476616024971,
					1
				],
				"metallicFactor":0,
				"roughnessFactor":0.5
			}
		},
		{
			"doubleSided":true,
			"name":"Car Texture",
			"pbrMetallicRoughness":{
				"baseColorFactor":[
					0.01786760799586773,
					0.01786760799586773,
					0.01786760799586773,
					1
				],
				"metallicFactor":0.30927833914756775,
				"roughnessFactor":0
			}
		},
		{
			"doubleSided":true,
			"name":"Carbon.001",
			"pbrMetallicRoughness":{
				"baseColorFactor":[
					0,
					0,
					0,
					1
				],
				"metallicFactor":0,
				"roughnessFactor":0.5
			}
		},
		{
			"doubleSided":true,
			"name":"Rear Lights"
		}
	],
	"meshes":[
		{
			"name":"Koenisegg one.341",
			"primitives":[
				{
					"attributes":{
						"POSITION":0,
						"NORMAL":1,
						"TEXCOORD_0":2,
						"TANGENT":3
					},
					"indices":4,
					"material":0
				},
				{
					"attributes":{
						"POSITION":5,
						"NORMAL":6,
						"TEXCOORD_0":7,
						"TANGENT":8
					},
					"indices":9,
					"material":1
				},
				{
					"attributes":{
						"POSITION":10,
						"NORMAL":11,
						"TEXCOORD_0":12,
						"TANGENT":13
					},
					"indices":14,
					"material":2
				},
				{
					"attributes":{
						"POSITION":15,
						"NORMAL":16,
						"TEXCOORD_0":17,
						"TANGENT":18
					},
					"indices":19,
					"material":3
				},
				{
					"attributes":{
						"POSITION":20,
						"NORMAL":21,
						"TEXCOORD_0":22,
						"TANGENT":23
					},
					"indices":24,
					"material":4
				},
				{
					"attributes":{
						"POSITION":25,
						"NORMAL":26,
						"TEXCOORD_0":27,
						"TANGENT":28
					},
					"indices":29,
					"material":5
				},
				{
					"attributes":{
						"POSITION":30,
						"NORMAL":31,
						"TEXCOORD_0":32,
						"TANGENT":33
					},
					"indices":34,
					"material":6
				}
			]
		}
	],
	"skins":[
		{
			"inverseBindMatrices":52,
			"joints":[
				2,
				1,
				3,
				4,
				5
			],
			"name":"Armature"
		}
	],
	"accessors":[
		{
			"bufferView":0,
			"componentType":5126,
			"count":8027,
			"max":[
				9.271573066711426,
				19.490196228027344,
				3.5441935062408447
			],
			"min":[
				-9.431955337524414,
				-18.699337005615234,
				-4.690749645233154
			],
			"type":"VEC3"
		},
		{
			"bufferView":1,
			"componentType":5126,
			"count":8027,
			"type":"VEC3"
		},
		{
			"bufferView":2,
			"componentType":5126,
			"count":8027,
			"type":"VEC2"
		},
		{
			"bufferView":3,
			"componentType":5126,
			"count":8027,
			"type":"VEC4"
		},
		{
			"bufferView":4,
			"componentType":5123,
			"count":29472,
			"type":"SCALAR"
		},
		{
			"bufferView":5,
			"componentType":5126,
			"count":430,
			"max":[
				7.324506759643555,
				17.966371536254883,
				0.4046812057495117
			],
			"min":[
				-7.484889984130859,
				-16.225187301635742,
				-4.2961039543151855
			],
			"type":"VEC3"
		},
		{
			"bufferView":6,
			"componentType":5126,
			"count":430,
			"type":"VEC3"
		},
		{
			"bufferView":7,
			"componentType":5126,
			"count":430,
			"type":"VEC2"
		},
		{
			"bufferView":8,
			"componentType":5126,
			"count":430,
			"type":"VEC4"
		},
		{
			"bufferView":9,
			"componentType":5123,
			"count":1482,
			"type":"SCALAR"
		},
		{
			"bufferView":10,
			"componentType":5126,
			"count":230,
			"max":[
				8.341429710388184,
				18.282703399658203,
				3.329857349395752
			],
			"min":[
				-8.501809120178223,
				-16.942148208618164,
				-1.3078927993774414
			],
			"type":"VEC3"
		},
		{
			"bufferView":11,
			"componentType":5126,
			"count":230,
			"type":"VEC3"
		},
		{
			"bufferView":12,
			"componentType":5126,
			"count":230,
			"type":"VEC2"
		},
		{
			"bufferView":13,
			"componentType":5126,
			"count":230,
			"type":"VEC4"
		},
		{
			"bufferView":14,
			"componentType":5123,
			"count":546,
			"type":"SCALAR"
		},
		{
			"bufferView":15,
			"componentType":5126,
			"count":6770,
			"max":[
				25.99228858947754,
				12.52627182006836,
				3.123823404312134
			],
			"min":[
				-7.6422810554504395,
				-3.4911036491394043,
				-5.045899868011475
			],
			"type":"VEC3"
		},
		{
			"bufferView":16,
			"componentType":5126,
			"count":6770,
			"type":"VEC3"
		},
		{
			"bufferView":17,
			"componentType":5126,
			"count":6770,
			"type":"VEC2"
		},
		{
			"bufferView":18,
			"componentType":5126,
			"count":6770,
			"type":"VEC4"
		},
		{
			"bufferView":19,
			"componentType":5123,
			"count":23184,
			"type":"SCALAR"
		},
		{
			"bufferView":20,
			"componentType":5126,
			"count":7315,
			"max":[
				8.448814392089844,
				18.979480743408203,
				3.541602373123169
			],
			"min":[
				-8.609195709228516,
				-17.488969802856445,
				-5.538262844085693
			],
			"type":"VEC3"
		},
		{
			"bufferView":21,
			"componentType":5126,
			"count":7315,
			"type":"VEC3"
		},
		{
			"bufferView":22,
			"componentType":5126,
			"count":7315,
			"type":"VEC2"
		},
		{
			"bufferView":23,
			"componentType":5126,
			"count":7315,
			"type":"VEC4"
		},
		{
			"bufferView":24,
			"componentType":5123,
			"count":24207,
			"type":"SCALAR"
		},
		{
			"bufferView":25,
			"componentType":5126,
			"count":296,
			"max":[
				3.3616690635681152,
				18.320268630981445,
				0.2819032669067383
			],
			"min":[
				-3.295867919921875,
				-11.677349090576172,
				-3.8198723793029785
			],
			"type":"VEC3"
		},
		{
			"bufferView":26,
			"componentType":5126,
			"count":296,
			"type":"VEC3"
		},
		{
			"bufferView":27,
			"componentType":5126,
			"count":296,
			"type":"VEC2"
		},
		{
			"bufferView":28,
			"componentType":5126,
			"count":296,
			"type":"VEC4"
		},
		{
			"bufferView":29,
			"componentType":5123,
			"count":1344,
			"type":"SCALAR"
		},
		{
			"bufferView":30,
			"componentType":5126,
			"count":167,
			"max":[
				7.132745742797852,
				-14.662364959716797,
				-1.2763514518737793
			],
			"min":[
				-7.27186918258667,
				-16.225187301635742,
				-2.1737194061279297
			],
			"type":"VEC3"
		},
		{
			"bufferView":31,
			"componentType":5126,
			"count":167,
			"type":"VEC3"
		},
		{
			"bufferView":32,
			"componentType":5126,
			"count":167,
			"type":"VEC2"
		},
		{
			"bufferView":33,
			"componentType":5126,
			"count":167,
			"type":"VEC4"
		},
		{
			"bufferView":34,
			"componentType":5123,
			"count":726,
			"type":"SCALAR"
		},
		{
			"bufferView":35,
			"componentType":5126,
			"count":2,
			"max":[
				0.8333333333333334
			],
			"min":[
				0.08333333333333333
			],
			"type":"SCALAR"
		},
		{
			"bufferView":36,
			"componentType":5126,
			"count":2,
			"type":"VEC3"
		},
		{
			"bufferView":37,
			"componentType":5126,
			"count":2,
			"type":"VEC4"
		},
		{
			"bufferView":38,
			"componentType":5126,
			"count":2,
			"type":"VEC3"
		},
		{
			"bufferView":39,
			"componentType":5126,
			"count":2,
			"type":"VEC3"
		},
		{
			"bufferView":40,
			"componentType":5126,
			"count":19,
			"max":[
				0.8333333333333334
			],
			"min":[
				0.08333333333333333
			],
			"type":"SCALAR"
		},
		{
			"bufferView":41,
			"componentType":5126,
			"count":19,
			"type":"VEC4"
		},
		{
			"bufferView":42,
			"componentType":5126,
			"count":2,
			"type":"VEC3"
		},
		{
			"bufferView":43,
			"componentType":5126,
			"count":2,
			"type":"VEC3"
		},
		{
			"bufferView":44,
			"componentType":5126,
			"count":19,
			"type":"VEC4"
		},
		{
			"bufferView":45,
			"componentType":5126,
			"count":2,
			"type":"VEC3"
		},
		{
			"bufferView":46,
			"componentType":5126,
			"count":2,
			"type":"VEC3"
		},
		{
			"bufferView":47,
			"componentType":5126,
			"count":19,
			"type":"VEC4"
		},
		{
			"bufferView":48,
			"componentType":5126,
			"count":2,
			"type":"VEC3"
		},
		{
			"bufferView":49,
			"componentType":5126,
			"count":2,
			"type":"VEC3"
		},
		{
			"bufferView":50,
			"componentType":5126,
			"count":19,
			"type":"VEC4"
		},
		{
			"bufferView":51,
			"componentType":5126,
			"count":2,
			"type":"VEC3"
		},
		{
			"bufferView":52,
			"componentType":5126,
			"count":5,
			"type":"MAT4"
		}
	],
	"bufferViews":[
		{
			"buffer":0,
			"byteLength":96324,
			"byteOffset":0,
			"target":34962
		},
		{
			"buffer":0,
			"byteLength":96324,
			"byteOffset":96324,
			"target":34962
		},
		{
			"buffer":0,
			"byteLength":64216,
			"byteOffset":192648,
			"target":34962
		},
		{
			"buffer":0,
			"byteLength":128432,
			"byteOffset":256864,
			"target":34962
		},
		{
			"buffer":0,
			"byteLength":58944,
			"byteOffset":385296,
			"target":34963
		},
		{
			"buffer":0,
			"byteLength":5160,
			"byteOffset":444240,
			"target":34962
		},
		{
			"buffer":0,
			"byteLength":5160,
			"byteOffset":449400,
			"target":34962
		},
		{
			"buffer":0,
			"byteLength":3440,
			"byteOffset":454560,
			"target":34962
		},
		{
			"buffer":0,
			"byteLength":6880,
			"byteOffset":458000,
			"target":34962
		},
		{
			"buffer":0,
			"byteLength":2964,
			"byteOffset":464880,
			"target":34963
		},
		{
			"buffer":0,
			"byteLength":2760,
			"byteOffset":467844,
			"target":34962
		},
		{
			"buffer":0,
			"byteLength":2760,
			"byteOffset":470604,
			"target":34962
		},
		{
			"buffer":0,
			"byteLength":1840,
			"byteOffset":473364,
			"target":34962
		},
		{
			"buffer":0,
			"byteLength":3680,
			"byteOffset":475204,
			"target":34962
		},
		{
			"buffer":0,
			"byteLength":1092,
			"byteOffset":478884,
			"target":34963
		},
		{
			"buffer":0,
			"byteLength":81240,
			"byteOffset":479976,
			"target":34962
		},
		{
			"buffer":0,
			"byteLength":81240,
			"byteOffset":561216,
			"target":34962
		},
		{
			"buffer":0,
			"byteLength":54160,
			"byteOffset":642456,
			"target":34962
		},
		{
			"buffer":0,
			"byteLength":108320,
			"byteOffset":696616,
			"target":34962
		},
		{
			"buffer":0,
			"byteLength":46368,
			"byteOffset":804936,
			"target":34963
		},
		{
			"buffer":0,
			"byteLength":87780,
			"byteOffset":851304,
			"target":34962
		},
		{
			"buffer":0,
			"byteLength":87780,
			"byteOffset":939084,
			"target":34962
		},
		{
			"buffer":0,
			"byteLength":58520,
			"byteOffset":1026864,
			"target":34962
		},
		{
			"buffer":0,
			"byteLength":117040,
			"byteOffset":1085384,
			"target":34962
		},
		{
			"buffer":0,
			"byteLength":48414,
			"byteOffset":1202424,
			"target":34963
		},
		{
			"buffer":0,
			"byteLength":3552,
			"byteOffset":1250840,
			"target":34962
		},
		{
			"buffer":0,
			"byteLength":3552,
			"byteOffset":1254392,
			"target":34962
		},
		{
			"buffer":0,
			"byteLength":2368,
			"byteOffset":1257944,
			"target":34962
		},
		{
			"buffer":0,
			"byteLength":4736,
			"byteOffset":1260312,
			"target":34962
		},
		{
			"buffer":0,
			"byteLength":2688,
			"byteOffset":1265048,
			"target":34963
		},
		{
			"buffer":0,
			"byteLength":2004,
			"byteOffset":1267736,
			"target":34962
		},
		{
			"buffer":0,
			"byteLength":2004,
			"byteOffset":1269740,
			"target":34962
		},
		{
			"buffer":0,
			"byteLength":1336,
			"byteOffset":1271744,
			"target":34962
		},
		{
			"buffer":0,
			"byteLength":2672,
			"byteOffset":1273080,
			"target":34962
		},
		{
			"buffer":0,
			"byteLength":1452,
			"byteOffset":1275752,
			"target":34963
		},
		{
			"buffer":0,
			"byteLength":8,
			"byteOffset":1277204
		},
		{
			"buffer":0,
			"byteLength":24,
			"byteOffset":1277212
		},
		{
			"buffer":0,
			"byteLength":32,
			"byteOffset":1277236
		},
		{
			"buffer":0,
			"byteLength":24,
			"byteOffset":1277268
		},
		{
			"buffer":0,
			"byteLength":24,
			"byteOffset":1277292
		},
		{
			"buffer":0,
			"byteLength":76,
			"byteOffset":1277316
		},
		{
			"buffer":0,
			"byteLength":304,
			"byteOffset":1277392
		},
		{
			"buffer":0,
			"byteLength":24,
			"byteOffset":1277696
		},
		{
			"buffer":0,
			"byteLength":24,
			"byteOffset":1277720
		},
		{
			"buffer":0,
			"byteLength":304,
			"byteOffset":1277744
		},
		{
			"buffer":0,
			"byteLength":24,
			"byteOffset":1278048
		},
		{
			"buffer":0,
			"byteLength":24,
			"byteOffset":1278072
		},
		{
			"buffer":0,
			"byteLength":304,
			"byteOffset":1278096
		},
		{
			"buffer":0,
			"byteLength":24,
			"byteOffset":1278400
		},
		{
			"buffer":0,
			"byteLength":24,
			"byteOffset":1278424
		},
		{
			"buffer":0,
			"byteLength":304,
			"byteOffset":1278448
		},
		{
			"buffer":0,
			"byteLength":24,
			"byteOffset":1278752
		},
		{
			"buffer":0,
			"byteLength":320,
			"byteOffset":1278776
		}
	],
	"buffers":[
		{
			"byteLength":1279096,
			"uri":"koenigsegg.bin"
		}
	]
}
